<?xml version="1.0" encoding="UTF-8" standalone="no"?>
<!-- Created with Inkscape (http://www.inkscape.org/) -->

<svg
   width="119.15114mm"
   height="141.36748mm"
   viewBox="0 0 119.15114 141.36748"
   version="1.1"
   id="svg5"
   xmlns:inkscape="http://www.inkscape.org/namespaces/inkscape"
   xmlns:sodipodi="http://sodipodi.sourceforge.net/DTD/sodipodi-0.dtd"
   xmlns:xlink="http://www.w3.org/1999/xlink"
   xmlns="http://www.w3.org/2000/svg"
   xmlns:svg="http://www.w3.org/2000/svg">
  <sodipodi:namedview
     id="namedview7"
     pagecolor="#ffffff"
     bordercolor="#000000"
     borderopacity="0.25"
     inkscape:showpageshadow="2"
     inkscape:pageopacity="0.0"
     inkscape:pagecheckerboard="0"
     inkscape:deskcolor="#d1d1d1"
     inkscape:document-units="mm"
     showgrid="false" />
  <defs
     id="defs2">
    <linearGradient
       inkscape:collect="always"
       id="linearGradient1456">
      <stop
         style="stop-color:#ff0000;stop-opacity:1;"
         offset="0"
         id="stop1452" />
      <stop
         style="stop-color:#96d639;stop-opacity:0.78162485;"
         offset="1"
         id="stop1454" />
    </linearGradient>
    <linearGradient
       inkscape:collect="always"
       xlink:href="#linearGradient1456"
       id="linearGradient1458"
       x1="167.25748"
       y1="83.865234"
       x2="68.666443"
       y2="208.49142"
       gradientUnits="userSpaceOnUse" />
    <linearGradient
       inkscape:collect="always"
       xlink:href="#linearGradient1456"
       id="linearGradient1634"
       gradientUnits="userSpaceOnUse"
       x1="167.25748"
       y1="83.865234"
       x2="68.666443"
       y2="208.49142"
       gradientTransform="translate(12.189448,-6.92969)" />
    <filter
       inkscape:collect="always"
       style="color-interpolation-filters:sRGB"
       id="filter1636"
       x="-0.084902711"
       y="-0.067166023"
       width="1.1698054"
       height="1.1343319">
      <feGaussianBlur
         inkscape:collect="always"
         stdDeviation="3.4877689"
         id="feGaussianBlur1638" />
    </filter>
  </defs>
  <g
     inkscape:label="Layer 1"
     inkscape:groupmode="layer"
     id="layer1"
     transform="translate(-60.295797,-75.494596)">
    <path
       id="path1216"
       style="color:#000000;opacity:0.5;fill:url(#linearGradient1458);fill-opacity:1;stroke-linecap:round;stroke-linejoin:round;-inkscape-stroke:none;paint-order:markers stroke fill;filter:url(#filter1636)"
       d="m 135.95898,150.87891 c -1.29962,9e-5 -2.54597,0.51647 -3.46484,1.43554 l -4.75,11.67969 c -1.91359,1.91357 11.67969,-4.75 11.67969,-4.75 1.9136,-1.91357 1.9136,-5.01612 0,-6.92969 -0.91888,-0.91907 -2.16523,-1.43545 -3.46485,-1.43554 z m -41.425777,41.42578 c -1.29962,9e-5 -2.54597,0.51647 -3.464844,1.43554 l -7.566406,14.49609 c -1.913599,1.91358 14.496094,-7.5664 14.496094,-7.5664 1.913599,-1.91357 1.913599,-5.01612 0,-6.92969 -0.918874,-0.91907 -2.165224,-1.43545 -3.464844,-1.43554 z m 40.259767,-59.37891 c -1.29962,9e-5 -2.54598,0.51648 -3.46485,1.43555 L 108.625,163.99414 c -1.91359,1.91357 29.63281,-22.70312 29.63281,-22.70312 1.9136,-1.91357 1.9136,-5.01612 0,-6.92969 -0.91887,-0.91907 -2.16522,-1.43546 -3.46484,-1.43555 z m -40.259767,40.25977 c -1.29962,9e-5 -2.54597,0.51647 -3.464844,1.43554 l -22.296875,29.22657 c -1.913598,1.91357 29.226563,-22.29688 29.226563,-22.29688 1.913599,-1.91357 1.913599,-5.01612 0,-6.92969 -0.918874,-0.91907 -2.165224,-1.43545 -3.464844,-1.43554 z M 162.35742,86.244141 c -1.29934,-4.25e-4 -2.54565,0.515241 -3.46484,1.433593 l -17.66407,24.593756 c -1.91359,1.91357 24.59376,-17.664068 24.59376,-17.664068 1.9136,-1.913573 1.9136,-5.016115 0,-6.929688 -0.91919,-0.918354 -2.16551,-1.43402 -3.46485,-1.433593 z m -46.68359,46.683589 c -1.29934,-4.3e-4 -2.54566,0.51524 -3.46485,1.4336 l -43.437496,50.36719 c -1.913598,1.91357 50.367186,-43.4375 50.367186,-43.4375 1.9136,-1.91357 1.9136,-5.01612 0,-6.92969 -0.91919,-0.91835 -2.1655,-1.43402 -3.46484,-1.4336 z m 25.55469,-44.675777 c -1.29962,9.1e-5 -2.54598,0.516476 -3.46485,1.435547 l -18.3125,25.24414 c -1.91359,1.91357 25.24219,-18.314453 25.24219,-18.314453 1.9136,-1.913573 1.9136,-5.016114 0,-6.929687 -0.91887,-0.919068 -2.16522,-1.435453 -3.46484,-1.435547 z M 96.554687,132.92578 c -1.299621,9e-5 -2.545971,0.51648 -3.464843,1.43555 l -24.31836,31.24804 c -1.913598,1.91358 31.248046,-24.31835 31.248046,-24.31835 1.9136,-1.91357 1.9136,-5.01612 0,-6.92969 -0.918872,-0.91907 -2.165222,-1.43546 -3.464843,-1.43555 z M 126.49805,83.865234 c -1.29934,-4.27e-4 -2.54566,0.515239 -3.46485,1.433594 l -22.70117,29.632812 c -1.913589,1.91357 29.63086,-22.703124 29.63086,-22.703124 1.9136,-1.913573 1.9136,-5.016115 0,-6.929688 -0.91919,-0.918352 -2.1655,-1.434018 -3.46484,-1.433594 z M 94.533203,115.82813 c -1.29962,9e-5 -2.54597,0.51647 -3.464844,1.43554 l -22.296875,29.22657 c -1.913598,1.91357 29.226563,-22.29688 29.226563,-22.29688 1.913599,-1.91357 1.913599,-5.01612 0,-6.92969 -0.918874,-0.91907 -2.165224,-1.43545 -3.464844,-1.43554 z M 107.37891,83.865234 c -1.29962,9.1e-5 -2.54598,0.516476 -3.46485,1.435547 L 68.771484,127.37304 c -1.913598,1.91358 42.072266,-35.142571 42.072266,-35.142571 1.9136,-1.913573 1.9136,-5.016115 0,-6.929688 -0.91887,-0.919068 -2.16522,-1.435453 -3.46484,-1.435547 z m -19.119144,0 c -1.299341,-4.25e-4 -2.545652,0.515241 -3.464844,1.433594 L 68.771484,108.25391 c -1.913598,1.91357 22.953125,-16.025394 22.953125,-16.025394 1.913597,-1.913573 1.913597,-5.016115 0,-6.929688 -0.919192,-0.918353 -2.165502,-1.434019 -3.464843,-1.433594 z m -19.118698,4.899285 -0.370004,0.370005" />
    <path
       id="path1632"
       style="color:#000000;fill:url(#linearGradient1634);fill-opacity:1;stroke-linecap:round;stroke-linejoin:round;-inkscape-stroke:none;paint-order:markers stroke fill"
       d="m 148.14843,143.94922 c -1.29962,9e-5 -2.54597,0.51647 -3.46484,1.43554 l -4.75,11.67969 c -1.91359,1.91357 11.67969,-4.75 11.67969,-4.75 1.9136,-1.91357 1.9136,-5.01612 0,-6.92969 -0.91888,-0.91907 -2.16523,-1.43545 -3.46485,-1.43554 z M 106.72265,185.375 c -1.29962,9e-5 -2.54597,0.51647 -3.46484,1.43554 l -7.566407,14.49609 c -1.913599,1.91358 14.496097,-7.5664 14.496097,-7.5664 1.9136,-1.91357 1.9136,-5.01612 0,-6.92969 -0.91888,-0.91907 -2.16523,-1.43545 -3.46485,-1.43554 z m 40.25977,-59.37891 c -1.29962,9e-5 -2.54598,0.51648 -3.46485,1.43555 l -22.70312,29.63281 c -1.91359,1.91357 29.63281,-22.70312 29.63281,-22.70312 1.9136,-1.91357 1.9136,-5.01612 0,-6.92969 -0.91887,-0.91907 -2.16522,-1.43546 -3.46484,-1.43555 z m -40.25977,40.25977 c -1.29962,9e-5 -2.54597,0.51647 -3.46484,1.43554 l -22.296876,29.22657 c -1.913598,1.91357 29.226566,-22.29688 29.226566,-22.29688 1.9136,-1.91357 1.9136,-5.01612 0,-6.92969 -0.91888,-0.91907 -2.16523,-1.43545 -3.46485,-1.43554 z m 67.82422,-86.941406 c -1.29934,-4.25e-4 -2.54565,0.515241 -3.46484,1.433593 L 153.41796,105.3418 c -1.91359,1.91357 24.59376,-17.664065 24.59376,-17.664065 1.9136,-1.913573 1.9136,-5.016115 0,-6.929688 -0.91919,-0.918354 -2.16551,-1.43402 -3.46485,-1.433593 z m -46.68359,46.683586 c -1.29934,-4.3e-4 -2.54566,0.51524 -3.46485,1.4336 l -43.437496,50.36719 c -1.913598,1.91357 50.367186,-43.4375 50.367186,-43.4375 1.9136,-1.91357 1.9136,-5.01612 0,-6.92969 -0.91919,-0.91835 -2.1655,-1.43402 -3.46484,-1.4336 z m 25.55469,-44.675774 c -1.29962,9.1e-5 -2.54598,0.516476 -3.46485,1.435547 l -18.3125,25.244137 c -1.91359,1.91357 25.24219,-18.31445 25.24219,-18.31445 1.9136,-1.913573 1.9136,-5.016114 0,-6.929687 -0.91887,-0.919068 -2.16522,-1.435453 -3.46484,-1.435547 z m -44.67383,44.673824 c -1.29962,9e-5 -2.54597,0.51648 -3.46485,1.43555 l -24.318356,31.24804 c -1.913598,1.91358 31.248046,-24.31835 31.248046,-24.31835 1.9136,-1.91357 1.9136,-5.01612 0,-6.92969 -0.91887,-0.91907 -2.16522,-1.43546 -3.46484,-1.43555 z M 138.6875,76.935547 c -1.29934,-4.27e-4 -2.54566,0.515239 -3.46485,1.433594 l -22.70117,29.632809 c -1.91359,1.91357 29.63086,-22.703121 29.63086,-22.703121 1.9136,-1.913573 1.9136,-5.016115 0,-6.929688 -0.91919,-0.918352 -2.1655,-1.434018 -3.46484,-1.433594 z m -31.96485,31.962893 c -1.29962,9e-5 -2.54597,0.51647 -3.46484,1.43554 l -22.296876,29.22657 c -1.913598,1.91357 29.226566,-22.29688 29.226566,-22.29688 1.9136,-1.91357 1.9136,-5.01612 0,-6.92969 -0.91888,-0.91907 -2.16523,-1.43545 -3.46485,-1.43554 z m 12.84571,-31.962893 c -1.29962,9.1e-5 -2.54598,0.516476 -3.46485,1.435547 L 80.960934,120.44335 c -1.913598,1.91358 42.072266,-35.142568 42.072266,-35.142568 1.9136,-1.913573 1.9136,-5.016115 0,-6.929688 -0.91887,-0.919068 -2.16522,-1.435453 -3.46484,-1.435547 z m -19.11914,0 c -1.299345,-4.25e-4 -2.545656,0.515241 -3.464848,1.433594 L 80.960934,101.32422 c -1.913598,1.91357 22.953126,-16.025391 22.953126,-16.025391 1.9136,-1.913573 1.9136,-5.016115 0,-6.929688 -0.91919,-0.918353 -2.1655,-1.434019 -3.46484,-1.433594 z m -19.118702,4.899285 -0.370004,0.370005" />
  </g>
</svg>
